<svg xmlns="http://www.w3.org/2000/svg" width="1920" height="1080.001" viewBox="0 0 1920 1080.001">
  <path id="减去_16" data-name="减去 16" d="M1920,1080H0V0H1920V1080ZM207.5,965a59.509,59.509,0,0,1,59.25,54H1651.813a59.507,59.507,0,0,1,59.248-54c.656,0,1.309.021,1.94.063V120.938c-.646.042-1.3.063-1.94.063a59.567,59.567,0,0,1-59.5-59.5c0-.142,0-.292,0-.5H267c0,.182.005.35.005.5A59.568,59.568,0,0,1,207.5,121c-.167,0-.33,0-.5,0V965C207.139,965,207.3,965,207.5,965Zm1436.275,47.164H274.091A65.59,65.59,0,0,0,214,959.045V129.728c32.644-3.86,58.219-30.24,60.814-62.727H1645.037a66.836,66.836,0,0,0,60.022,61.514V957.223a66.124,66.124,0,0,0-61.284,54.942ZM276.637,69a69.572,69.572,0,0,1-6.4,22.615A71.375,71.375,0,0,1,216,131.483V957.2a67.545,67.545,0,0,1,59.724,52.965H1642.105a68.093,68.093,0,0,1,60.954-54.8V130.3A68.821,68.821,0,0,1,1643.206,69Z" transform="translate(0)" fill="#0e1317"/>
</svg>
