<?xml version="1.0" encoding="utf-8"?>
<!-- Generator: Adobe Illustrator 26.1.0, SVG Export Plug-In . SVG Version: 6.00 Build 0)  -->
<svg version="1.1" id="图层_1" xmlns="http://www.w3.org/2000/svg" xmlns:xlink="http://www.w3.org/1999/xlink" x="0px" y="0px"
	 viewBox="0 0 2118 1000" style="enable-background:new 0 0 2118 1000;" xml:space="preserve">
<style type="text/css">
	.st0{fill:#090C0F;}
	.st1{fill:#0E1317;}
	.st2{fill:none;}
	.st3{fill:#192027;}
</style>
<g>
	<g id="组_829" transform="translate(-3620 -774)">
		<path id="减去_21" class="st0" d="M5527,1674H3831V874h1696V1674z M4076.6,1614c24.6,0,45.1,18.7,47.4,43.2h1108
			c2.3-24.5,22.8-43.2,47.4-43.2c0.5,0,1.1,0,1.6,0.1V938.7c-0.5,0-1,0.1-1.6,0.1c-26.3,0-47.6-21.3-47.6-47.6c0-0.1,0-0.2,0-0.3
			v-0.1H4124.2c0,0.2,0,0.3,0,0.4c0,26.3-21.3,47.6-47.6,47.6c-0.1,0-0.3,0-0.4,0V1614C4076.3,1614,4076.5,1614,4076.6,1614z"/>
		<path id="减去_16" class="st1" d="M5232.5,1657.2H4124.4c-1.1-11.8-6.5-22.7-15.2-30.7c-8.8-8.1-20.3-12.5-32.2-12.5
			c-0.1,0-0.3,0-0.4,0V938.8c0.1,0,0.3,0,0.4,0c26.3,0,47.6-21.3,47.6-47.6c0-0.1,0-0.3,0-0.4h1107.7c0,0.1,0,0.2,0,0.4
			c0,26.3,21.3,47.6,47.6,47.6c0.5,0,1,0,1.6-0.1v675.3c-0.5,0-1-0.1-1.6-0.1C5255.3,1614,5234.7,1632.7,5232.5,1657.2
			L5232.5,1657.2z M4131.7,896.7c-2.1,25.9-22.5,47-48.7,50.1v662c23.8,1.6,43.6,19,48.1,42.4h1095.7c1-5.9,3-11.5,5.9-16.7
			c8.8-15.8,25.1-26.1,43.1-27.1V945.8c-6.3-0.6-12.4-2.3-18.1-5.1c-5.5-2.7-10.6-6.3-14.8-10.7c-4.3-4.4-7.8-9.5-10.4-15.1
			c-2.6-5.7-4.2-11.9-4.7-18.2L4131.7,896.7L4131.7,896.7z"/>
		<g id="减去_14" transform="translate(3917.384 781.844)">
			<path class="st2" d="M1310.2,870.2H213c-4.5-23.5-24.3-40.9-48.1-42.5V164.2c26.1-3.1,46.6-24.2,48.7-50.2h1097.6
				c0.5,6.3,2.1,12.5,4.7,18.3c5.2,11.3,14.1,20.4,25.3,25.8c5.7,2.8,11.8,4.5,18.1,5.1v663C1334.7,827.6,1314.3,845.9,1310.2,870.2
				L1310.2,870.2z"/>
			<path class="st3" d="M1308.8,868.6c1.1-5.6,3-11,5.8-16c2.9-5.3,6.7-10,11.2-14.1c4.5-4.1,9.6-7.3,15.2-9.7
				c5.3-2.2,10.9-3.6,16.6-4.1l0-660c-6-0.8-11.8-2.5-17.2-5.1c-5.7-2.8-10.9-6.5-15.3-11c-4.5-4.6-8.1-9.8-10.7-15.6
				c-2.5-5.5-4.1-11.3-4.7-17.3H215c-2.7,25.6-22.8,46.3-48.6,50v660.6c23.5,2.2,42.9,19.4,47.8,42.4H1308.8 M1310.2,870.2H213
				c-4.5-23.4-24.3-40.9-48.1-42.5V164.2c26.1-3.1,46.6-24.2,48.7-50.2h1097.6c0.5,6.3,2.1,12.5,4.7,18.3
				c2.6,5.6,6.1,10.7,10.4,15.1c4.3,4.4,9.3,8,14.9,10.7c5.7,2.8,11.8,4.5,18.1,5.1l0,663c-6.1,0.4-12,1.7-17.6,4.1
				c-5.4,2.3-10.4,5.5-14.8,9.4c-4.4,3.9-8,8.5-10.9,13.6C1313.1,858.6,1311.2,864.3,1310.2,870.2L1310.2,870.2z"/>
		</g>
		<path id="减去_19" class="st1" d="M5234,1658H4123.7c-1.1-11.8-6.5-22.8-15.3-30.7c-8.8-8.1-20.3-12.6-32.2-12.5
			c-0.1,0-0.3,0-0.4,0V938.1c0.1,0,0.3,0,0.4,0c26.3,0,47.7-21.4,47.7-47.7c0-0.1,0-0.3,0-0.4h1109.9c0,0.1,0,0.2,0,0.4
			c0,26.3,21.4,47.7,47.7,47.7c0.5,0,1,0,1.6-0.1v676.7c-0.5,0-1-0.1-1.6-0.1C5256.8,1614.7,5236.2,1633.5,5234,1658L5234,1658z
			 M4131,895.9c-2.1,26-22.6,47.1-48.7,50.2v663.4c23.9,1.6,43.6,19,48.2,42.5h1097.9c1-5.9,3-11.6,5.9-16.8
			c8.8-15.9,25.1-26.1,43.2-27.2V945.1c-6.3-0.6-12.4-2.4-18.1-5.1c-5.5-2.7-10.6-6.3-14.9-10.7c-4.3-4.4-7.8-9.5-10.4-15.1
			c-2.6-5.8-4.2-11.9-4.7-18.3H4131z"/>
	</g>
	<rect class="st0" width="2118" height="108"/>
	<rect y="892.3" class="st0" width="2118" height="107.7"/>
	<rect y="100.2" class="st0" width="217.3" height="800"/>
	<rect x="1900.7" y="100.1" class="st0" width="217.3" height="800"/>
</g>
</svg>
