<svg xmlns="http://www.w3.org/2000/svg" width="20.148" height="23.727" viewBox="0 0 20.148 23.727">
  <path id="logo-discord" d="M93.734,20.24s-.4-.48-.737-.89a3.516,3.516,0,0,0,2.016-1.309,6.346,6.346,0,0,1-1.283.655,8.074,8.074,0,0,1-1.615.48,7.9,7.9,0,0,1-2.889-.013,8.19,8.19,0,0,1-1.636-.48,6.236,6.236,0,0,1-.812-.38c-.035-.022-.065-.035-.1-.057a.109.109,0,0,0-.048-.022c-.2-.113-.314-.188-.314-.188a3.5,3.5,0,0,0,1.951,1.3c-.336.423-.746.912-.746.912a4.055,4.055,0,0,1-3.4-1.68,14.651,14.651,0,0,1,1.606-6.428,5.519,5.519,0,0,1,3.12-1.156l.113.135a7.311,7.311,0,0,0-2.919,1.444s.244-.135.659-.31a8.628,8.628,0,0,1,2.531-.7.917.917,0,0,1,.188-.022,9.481,9.481,0,0,1,2.252-.022,9.3,9.3,0,0,1,1.728.367,9.2,9.2,0,0,1,1.628.689,7.341,7.341,0,0,0-2.775-1.4l.157-.179a5.491,5.491,0,0,1,3.12,1.156,14.651,14.651,0,0,1,1.606,6.428A4.075,4.075,0,0,1,93.734,20.24Zm6.41-12.114a1.9,1.9,0,0,0-.013-.223,1.962,1.962,0,0,0-.035-.223,2.005,2.005,0,0,0-.057-.218,2.044,2.044,0,0,0-.079-.209c-.031-.07-.061-.135-.1-.2a1.741,1.741,0,0,0-.118-.192c-.044-.061-.087-.122-.135-.179a1.81,1.81,0,0,0-.153-.166,1.755,1.755,0,0,0-.166-.148,1.7,1.7,0,0,0-.179-.131c-.061-.039-.127-.079-.192-.113s-.135-.065-.2-.1a2,2,0,0,0-.209-.074c-.07-.022-.144-.039-.218-.057s-.148-.026-.223-.035a1.9,1.9,0,0,0-.223-.013L83.282,5.8a1.9,1.9,0,0,0-.223.013,2.812,2.812,0,0,0-.441.087c-.074.022-.14.048-.209.074s-.135.061-.2.1-.131.074-.192.113a1.748,1.748,0,0,0-.179.135c-.057.048-.113.1-.166.148a1.755,1.755,0,0,0-.148.166c-.044.057-.092.118-.135.179A1.7,1.7,0,0,0,81.275,7c-.035.065-.065.135-.1.2a2,2,0,0,0-.074.209c-.022.07-.039.144-.057.218a1.963,1.963,0,0,0-.035.223A1.9,1.9,0,0,0,81,8.078V23.1a2.226,2.226,0,0,0,2.287,2.208H95.728l-.6-2.025,5.018,4.6V8.126Zm-7.528,6.969a1.225,1.225,0,1,0,1.139,1.222A1.176,1.176,0,0,0,92.616,15.095Zm-4.067,0a1.225,1.225,0,1,0,1.139,1.222A1.176,1.176,0,0,0,88.549,15.095Z" transform="translate(-80.5 -5.3)" fill="none" stroke="#c19977" stroke-width="1"/>
</svg>
