<svg xmlns="http://www.w3.org/2000/svg" width="297.92" height="69.436" viewBox="0 0 297.92 69.436">
  <path id="路径_10646" data-name="路径 10646" d="M52.088-61.064a4.966,4.966,0,0,1,1.768,2.822,10.9,10.9,0,0,1,.136,3.876,24.535,24.535,0,0,1-1.02,4.454A38.445,38.445,0,0,1,51.2-45.424q-1.02,2.176-2.074,4.08a31.458,31.458,0,0,1-1.938,3.128,59.5,59.5,0,0,1-11.56,12.784A50.833,50.833,0,0,1,22.78-17.884q-.748,1.768-1.428,3.638t-1.258,3.74q-.578,1.87-1.054,3.57t-.816,2.992a31.218,31.218,0,0,1,4.488-.1,38.13,38.13,0,0,1,5.236.578,36.494,36.494,0,0,1,5.1,1.292,14.3,14.3,0,0,1,4.08,2.04,1.842,1.842,0,0,1,.68,1.9,5.191,5.191,0,0,1-.952,2.244,4.541,4.541,0,0,1-1.8,1.5,1.4,1.4,0,0,1-1.8-.408,8.08,8.08,0,0,0-1.87-1.36,16.79,16.79,0,0,0-3.468-1.462,32.689,32.689,0,0,0-4.726-1.054,24.366,24.366,0,0,0-5.644-.17,28.724,28.724,0,0,0-6.188,1.224A25.065,25.065,0,0,0,4.964,5.372a1.927,1.927,0,0,1-1.938.272A3.037,3.037,0,0,1,1.6,4.352a3.36,3.36,0,0,1-.442-1.938,1.89,1.89,0,0,1,1.02-1.6A29.087,29.087,0,0,1,6.868-1.6a36.423,36.423,0,0,1,4.624-1.394q.34-1.292.884-3.128t1.19-3.842q.646-2.006,1.36-3.978t1.326-3.6q-.408,0-1.6-.068a24.559,24.559,0,0,1-2.618-.306q-1.428-.238-2.958-.612a11.637,11.637,0,0,1-2.686-.986,2.28,2.28,0,0,1-1.156-1.768,4,4,0,0,1,.306-2.142,3.365,3.365,0,0,1,1.326-1.53,1.9,1.9,0,0,1,1.9-.068,17.219,17.219,0,0,0,5.3,1.836,12.071,12.071,0,0,0,4.216.068q3.06-7.072,6.7-13.94a131.609,131.609,0,0,1,8.058-13.26q1.7-2.448,3.944-5.168a28.493,28.493,0,0,1,4.76-4.624,12.464,12.464,0,0,1,5.168-2.414A6.236,6.236,0,0,1,52.088-61.064ZM46.512-46.24A29.993,29.993,0,0,0,49.3-53.074q.612-2.686-.17-3.434t-2.89.68A29.368,29.368,0,0,0,40.8-50.32q-2.04,2.516-4.182,5.678T32.47-38.08q-2.006,3.4-3.808,6.8T25.5-24.82a26.365,26.365,0,0,0,5.712-3.468,56.4,56.4,0,0,0,5.848-5.236A63.785,63.785,0,0,0,42.4-39.746,44.566,44.566,0,0,0,46.512-46.24Zm-.34,17.68a1.751,1.751,0,0,1,1.8-.782,4.75,4.75,0,0,1,2.074.85,4.44,4.44,0,0,1,1.428,1.632,1.191,1.191,0,0,1-.2,1.564,8.1,8.1,0,0,0-1.19,1.666q-.85,1.394-1.9,3.3T46.1-16.354a39.356,39.356,0,0,0-1.632,3.74,9.154,9.154,0,0,0-.646,2.584q-.034.918.918.442a11.555,11.555,0,0,0,2.754-2.04q1.6-1.5,3.332-3.434t3.5-4.182q1.768-2.244,3.3-4.284t2.686-3.74q1.156-1.7,1.7-2.584a1.986,1.986,0,0,1,1.836-1.122,4.077,4.077,0,0,1,2.176.714,4.866,4.866,0,0,1,1.564,1.632A1.44,1.44,0,0,1,67.66-27a13.516,13.516,0,0,0-.816,1.5q-.612,1.224-1.326,2.89T64.09-19.04A28.693,28.693,0,0,0,63-15.538a10.687,10.687,0,0,0-.34,2.686q.034,1.088.85,1.088a4.6,4.6,0,0,0,2.074-.884,27.128,27.128,0,0,0,3.06-2.312q1.666-1.428,3.5-3.128t3.468-3.264a1.24,1.24,0,0,1,1.054-.408,1.624,1.624,0,0,1,.986.476A1.589,1.589,0,0,1,78.1-20.2a2.439,2.439,0,0,1-.442,1.428q-1.02,1.088-2.38,2.482T72.318-13.4q-1.6,1.5-3.23,2.856a31.75,31.75,0,0,1-3.23,2.38,14.511,14.511,0,0,1-2.958,1.5,3.65,3.65,0,0,1-2.38.136,4.754,4.754,0,0,1-3.332-3.366,13.766,13.766,0,0,1,.272-6.562q-2.72,3.2-5.44,6.29a22.838,22.838,0,0,1-6.188,5,6.636,6.636,0,0,1-3.23.952,5.863,5.863,0,0,1-2.72-.612,4.762,4.762,0,0,1-1.9-1.768A5.426,5.426,0,0,1,37.2-9.248a7.384,7.384,0,0,1,.442-2.618,36.468,36.468,0,0,1,1.326-3.468Q39.78-17.2,40.8-19.21t2.04-3.842q1.02-1.836,1.9-3.264T46.172-28.56ZM89.624-8.024A3.192,3.192,0,0,1,87.89-11.05a14.21,14.21,0,0,1,.816-4.692,38.669,38.669,0,0,1,2.108-5.066l2.074-4.148a14.333,14.333,0,0,0-3.23,2.584,50.716,50.716,0,0,0-3.536,4.046q-1.8,2.278-3.672,4.794T78.744-8.7a15.884,15.884,0,0,1-3.672,3.4A3.575,3.575,0,0,1,71.6-4.76,2.226,2.226,0,0,1,70.414-6.7a10.9,10.9,0,0,1,.272-3.5,32.657,32.657,0,0,1,1.326-4.42Q72.9-17,73.95-19.176t2.108-3.944a16.466,16.466,0,0,1,1.87-2.652,2.121,2.121,0,0,1,1.972-.68,4,4,0,0,1,1.938.952,4.051,4.051,0,0,1,1.19,1.734,1.433,1.433,0,0,1-.272,1.6,13.522,13.522,0,0,0-1.7,2.244q-.952,1.5-1.87,3.128t-1.666,3.06q-.748,1.428-1.02,2.108,1.02-1.156,2.652-3.3t3.6-4.556q1.972-2.414,4.114-4.794a34.867,34.867,0,0,1,4.25-4.046,12.464,12.464,0,0,1,4.012-2.244,3.567,3.567,0,0,1,3.4.578,2.653,2.653,0,0,1,.952,2.516,14.284,14.284,0,0,1-.884,3.74,42.414,42.414,0,0,1-1.768,4.114q-1.02,2.074-1.666,3.672A7.219,7.219,0,0,0,94.52-13.5q0,.85,1.292.408a21.759,21.759,0,0,0,4.216-2.414q2.924-1.972,8.024-6.052a1.034,1.034,0,0,1,1.02-.136,1.639,1.639,0,0,1,.85.714,2.061,2.061,0,0,1,.272,1.19,1.483,1.483,0,0,1-.714,1.156q-.816.612-2.278,1.836t-3.2,2.618q-1.734,1.394-3.706,2.788a31.685,31.685,0,0,1-3.91,2.38,14.186,14.186,0,0,1-3.672,1.326A4.717,4.717,0,0,1,89.624-8.024Zm40.324-12.988a1.1,1.1,0,0,1,.952-.1,1.653,1.653,0,0,1,.782.578,1.492,1.492,0,0,1,.306.918,1.268,1.268,0,0,1-.408.918q-1.224,1.224-3.026,2.89t-3.978,3.4q-2.176,1.734-4.556,3.366a29.715,29.715,0,0,1-4.76,2.686,18.158,18.158,0,0,1-4.624,1.394,7.486,7.486,0,0,1-4.148-.476,4.657,4.657,0,0,1-2.618-2.584,7.751,7.751,0,0,1-.374-4.08,15.868,15.868,0,0,1,1.666-4.9,25,25,0,0,1,3.468-5.032,30.113,30.113,0,0,1,5-4.522,24.993,24.993,0,0,1,6.256-3.3,1.913,1.913,0,0,1,2.108.306,3.64,3.64,0,0,1,1.156,1.938,4.163,4.163,0,0,1-.136,2.346,2.462,2.462,0,0,1-1.7,1.6,17.187,17.187,0,0,0-6.834,3.672,15.82,15.82,0,0,0-3.774,4.76,5.116,5.116,0,0,0-.51,3.91q.578,1.6,3.026,1.19a12.336,12.336,0,0,0,4.046-1.632,54.226,54.226,0,0,0,4.726-3.094q2.38-1.734,4.522-3.434T129.948-21.012Zm32.708-.2a.822.822,0,0,1,.85-.2,1.628,1.628,0,0,1,.85.544,1.648,1.648,0,0,1,.374.986,1.551,1.551,0,0,1-.646,1.19q-3.2,3.128-6.324,5.712a50.046,50.046,0,0,1-5.882,4.25,18.056,18.056,0,0,1-5.032,2.21,4.766,4.766,0,0,1-3.706-.34,3.1,3.1,0,0,1-1.5-2.89,13.827,13.827,0,0,1,.782-4.352,35.055,35.055,0,0,1,2.006-4.76q1.224-2.414,2.108-4.216a14.773,14.773,0,0,0,1.088-2.652q.2-.85-1.02-.034a23.4,23.4,0,0,0-3.672,3.06,52.475,52.475,0,0,0-3.74,4.182q-1.836,2.278-3.6,4.76t-3.3,4.76q-1.53,2.278-2.72,4.216T127.636-1.7A3.528,3.528,0,0,1,125.7,0a3.087,3.087,0,0,1-2.074-.034,3.007,3.007,0,0,1-1.5-1.258,2.473,2.473,0,0,1-.272-1.972,69.636,69.636,0,0,1,2.618-7.922q1.734-4.454,3.978-9.282t4.828-9.724q2.584-4.9,5.3-9.35t5.372-8.126a50.012,50.012,0,0,1,5.032-6.052,2.211,2.211,0,0,1,2.21-.544,4.252,4.252,0,0,1,2.142,1.36,4.355,4.355,0,0,1,1.054,2.346,2.388,2.388,0,0,1-1.054,2.278,24.354,24.354,0,0,0-2.856,2.72q-1.7,1.836-3.706,4.42t-4.148,5.78q-2.142,3.2-4.216,6.7t-3.91,7.174a66.358,66.358,0,0,0-3.128,7.276q.816-1.156,2.142-2.924t2.924-3.774q1.6-2.006,3.4-4.046t3.6-3.74a30.227,30.227,0,0,1,3.468-2.856,8.375,8.375,0,0,1,3.026-1.428,5.194,5.194,0,0,1,2.652.136,3.41,3.41,0,0,1,1.87,1.428,4.452,4.452,0,0,1,.578,2.618,9.656,9.656,0,0,1-1.156,3.774q-1.02,1.972-2.04,4.012T150.076-17.2q-.748,1.768-1.224,3.162a4.242,4.242,0,0,0-.34,2.006q.136.748,1.394.272a17.062,17.062,0,0,0,3.2-1.768q1.938-1.292,4.42-3.3T162.656-21.216ZM191.76-49.5a47.823,47.823,0,0,1,10.778-7.922,41.866,41.866,0,0,1,11.05-4.08,31.943,31.943,0,0,1,10.4-.51,24.538,24.538,0,0,1,8.874,2.754,18.79,18.79,0,0,1,6.426,5.712,17.685,17.685,0,0,1,3.06,8.33,24.3,24.3,0,0,1-.918,9.69A45.964,45.964,0,0,1,237.15-25.6a65.672,65.672,0,0,1-6.732,9.588,81.183,81.183,0,0,1-8.364,8.6,76.915,76.915,0,0,1-9.18,7A54.779,54.779,0,0,1,203.8,4.42a29.34,29.34,0,0,1-9.078,2.346,13.337,13.337,0,0,1-6.46-.952,7.3,7.3,0,0,1-3.672-3.6,10.387,10.387,0,0,1-.782-5.576,20.247,20.247,0,0,1,2.21-6.868,35.6,35.6,0,0,1,5.338-7.582,48.082,48.082,0,0,1,4.454-4.42q2.278-1.972,4.352-3.6t3.808-2.924q1.734-1.292,2.89-2.244.272-.544,1.394-2.856t2.72-5.542q1.6-3.23,3.536-6.97t3.774-7.14a1.91,1.91,0,0,1,1.938-1.156,5.362,5.362,0,0,1,2.516.782,5.487,5.487,0,0,1,1.87,1.8,1.6,1.6,0,0,1,0,1.972q-1.088,1.632-2.38,3.774t-2.516,4.25q-1.224,2.108-2.244,3.91T215.9-35.5q1.564-.748,3.026-1.36l3.094-1.292a1.4,1.4,0,0,1,1.5.442,4.5,4.5,0,0,1,1.122,1.734,3.709,3.709,0,0,1,.17,2.04,1.724,1.724,0,0,1-1.292,1.36q-1.768.748-3.57,1.564t-3.468,1.632q-1.666.816-3.128,1.666a28.257,28.257,0,0,0-2.482,1.6q-1.5,2.652-2.788,5.474t-2.414,5.576q-1.122,2.754-2.108,5.3l-1.8,4.658a1.724,1.724,0,0,1-1.326.952,4.036,4.036,0,0,1-2.006-.1A3.9,3.9,0,0,1,196.69-5.3a1.888,1.888,0,0,1-.51-1.768,10.881,10.881,0,0,1,.748-2.04q.68-1.564,1.53-3.5t1.8-3.978q.952-2.04,1.632-3.536a32.138,32.138,0,0,0-6.154,5.236,38.9,38.9,0,0,0-4.76,6.222,18.74,18.74,0,0,0-2.414,5.644q-.544,2.55.952,3.57a7.7,7.7,0,0,0,5.338.986A26.3,26.3,0,0,0,202.3-.612,50.779,50.779,0,0,0,210.188-5.1a72.559,72.559,0,0,0,7.956-6.324,75.076,75.076,0,0,0,7.276-7.65,62.045,62.045,0,0,0,5.916-8.466,43.932,43.932,0,0,0,3.91-8.772,24.156,24.156,0,0,0,1.19-8.5,14.513,14.513,0,0,0-2.006-7,12.414,12.414,0,0,0-4.794-4.522,16.337,16.337,0,0,0-6.936-1.8,24.387,24.387,0,0,0-8.33,1.122,35.815,35.815,0,0,0-8.976,4.284,46.017,46.017,0,0,0-8.942,7.718,1.409,1.409,0,0,1-1.7.476,5.058,5.058,0,0,1-2.006-1.224,5.321,5.321,0,0,1-1.326-1.972A1.486,1.486,0,0,1,191.76-49.5Zm64.4,29.988q-1.9,1.836-4.352,4.522t-5.066,5.1a25.645,25.645,0,0,1-5.3,3.842,6.559,6.559,0,0,1-5.134.68,3,3,0,0,1-2.142-1.9,6.361,6.361,0,0,1-.136-3.366,15.189,15.189,0,0,1,1.564-4.182,31.618,31.618,0,0,1,2.89-4.454,29.851,29.851,0,0,1,3.842-4.114,25.262,25.262,0,0,1,4.454-3.2,6.645,6.645,0,0,1,5.066-.952,6.94,6.94,0,0,1,3.978,2.992q.476-.476,1.156-1.224t1.394-1.564q.714-.816,1.428-1.564a10.689,10.689,0,0,1,1.258-1.156,2.745,2.745,0,0,1,1.9-.714,3.089,3.089,0,0,1,1.734.544,2.455,2.455,0,0,1,.952,1.462,2.74,2.74,0,0,1-.374,2.04,73.241,73.241,0,0,0-4.93,10.4q-1.19,3.536-.17,4.08t4.216-1.768a87.6,87.6,0,0,0,8.228-7.072,1.635,1.635,0,0,1,1.156-.51,1.094,1.094,0,0,1,.85.442,1.508,1.508,0,0,1,.238,1.088,2.9,2.9,0,0,1-.748,1.5Q267.716-11.084,263.5-8.6t-7.14.986a4.26,4.26,0,0,1-2.108-3.672Q253.98-14.008,256.156-19.516Zm-12.716,6.6a31.409,31.409,0,0,0,2.618-2.108q1.462-1.292,2.856-2.652t2.482-2.584a12.112,12.112,0,0,0,1.428-1.836q.272-.476-.272-.816a2.373,2.373,0,0,0-1.734-.068,10.154,10.154,0,0,0-2.992,1.428,20.842,20.842,0,0,0-4.046,3.672q-.476.544-1.19,1.462T241.3-14.586a15.066,15.066,0,0,0-.952,1.734,1.99,1.99,0,0,0-.272,1.19q.1.374.884.136A11.039,11.039,0,0,0,243.44-12.92Zm45.152-5.168a13.719,13.719,0,0,1-1.156,3.536,18.693,18.693,0,0,1-2.516,4.046,13.659,13.659,0,0,1-3.774,3.23,8.591,8.591,0,0,1-5.066,1.088,5.923,5.923,0,0,1-2.448-.714,6.753,6.753,0,0,1-2.108-1.734,7.854,7.854,0,0,1-1.36-2.55,7.172,7.172,0,0,1-.2-3.3,14.851,14.851,0,0,1,1.87-5.576,18.7,18.7,0,0,1,3.026-3.876,2.088,2.088,0,0,1,2.04-.442,4.242,4.242,0,0,1,2.176,1.394,6.979,6.979,0,0,1-1.666-4.42,5.219,5.219,0,0,1,1.258-3.332,5.3,5.3,0,0,1,2.958-1.666,5.131,5.131,0,0,1,3.536.544,7.34,7.34,0,0,1,2.958,3.332,14.325,14.325,0,0,1,1.156,6.63,8.338,8.338,0,0,0,2.142.408,12.385,12.385,0,0,0,2.244-.068,20.037,20.037,0,0,0,2.142-.374q1.02-.238,1.768-.442a.862.862,0,0,1,.986.2,1.944,1.944,0,0,1,.476,1.02,2.8,2.8,0,0,1-.068,1.224,1.206,1.206,0,0,1-.578.816,14.693,14.693,0,0,1-5.542,1.36A16.3,16.3,0,0,1,288.592-18.088Zm-8.7-3.672a1.308,1.308,0,0,1,.136.816,1.868,1.868,0,0,1-.68.952,11.277,11.277,0,0,0-2.176,2.686,14.162,14.162,0,0,0-1.394,3.026,4.931,4.931,0,0,0-.238,2.414,1.131,1.131,0,0,0,1.36.918,3.79,3.79,0,0,0,2.142-1.02,13.814,13.814,0,0,0,2.074-2.21,17.149,17.149,0,0,0,1.666-2.686,9.853,9.853,0,0,0,.918-2.516,9.9,9.9,0,0,1-2.04-.952A6.547,6.547,0,0,1,279.888-21.76Zm2.38-6.392a.9.9,0,0,0-.374.782,3.142,3.142,0,0,0,.238,1.292,5.2,5.2,0,0,0,.816,1.394,4.015,4.015,0,0,0,1.36,1.088,8.968,8.968,0,0,0-.034-1.734,6.645,6.645,0,0,0-.374-1.632,2.6,2.6,0,0,0-.714-1.088A.741.741,0,0,0,282.268-28.152Z" transform="translate(-1.148 62.631)" fill="#d8a573"/>
</svg>
