<svg xmlns="http://www.w3.org/2000/svg" width="1674.464" height="202.776" viewBox="0 0 1674.464 202.776">
  <path id="路径_10649" data-name="路径 10649" d="M83.78-134.9,102.808,0H132.06l26.98-198.8H139.728L117.292-29.252,95.424-198.516H73.556L51.4-29.536,28.116-198.8H6.532L33.8,0H64.184Zm115.3,24.14v-67.876h59.64V-198.8H176.932V0h81.792V-20.164h-59.64V-90.88h48.564v-19.88ZM278.6-198.8l2.84,53.676H296.78L299.9-198.8Zm43.452,0V0h22.152V-84.916h15.62c18.46,0,28.968,7.1,28.968,29.536v31.24c0,13.348,1.136,18.46,3.692,24.14h22.436c-3.692-6.816-3.976-15.052-3.976-23.856V-54.812c0-21.3-6.816-36.068-24.992-41.464,17.04-5.4,24.708-19.028,24.708-40.9V-153.36c0-29.536-13.064-45.44-44.3-45.44Zm22.152,93.72v-73.556h21.584c16.472,0,23,9.372,23,27.264v19.028c0,21.584-10.508,27.264-28.116,27.264Zm111.9-5.68v-67.876h59.64V-198.8H433.952V0h81.792V-20.164H456.1V-90.88h48.564v-19.88ZM623.1-200.788c-30.388,0-44.588,19.88-44.588,49.984V-48c0,30.1,14.2,49.984,44.588,49.984,30.672,0,44.872-19.88,44.872-49.984V-72.7H646.952V-46.86c0,17.892-7.1,28.684-23.288,28.684-15.9,0-23.288-10.792-23.288-28.684V-151.94c0-17.892,7.384-28.684,23.288-28.684,16.188,0,23.288,10.792,23.288,28.684v19.028h21.016V-150.8C667.968-180.908,653.768-200.788,623.1-200.788ZM686.428-48c0,30.1,15.052,49.984,45.44,49.984,30.672,0,45.724-19.88,45.724-49.984V-150.8c0-30.388-15.052-49.984-45.724-49.984-30.388,0-45.44,19.6-45.44,49.984ZM708.3-151.94c0-17.892,7.668-28.684,23.572-28.684,16.188,0,23.572,10.792,23.572,28.684V-46.86c0,18.176-7.384,28.684-23.572,28.684-15.9,0-23.572-10.508-23.572-28.684ZM903.4-159.892V0H924.42V-198.8H893.464L861.94-40.044,829.28-198.8H798.324V0h19.312V-158.472L850.58-.284h21.3ZM947.14-198.8V0h22.152V-198.8Zm64.468,38.056L1062.444,0h23V-198.8h-19.6V-55.1l-46.008-143.7H991.728V0h19.88Zm139.444-40.044c-30.388,0-44.588,19.88-44.588,49.984V-48c0,30.1,14.2,49.984,44.588,49.984,30.672,0,44.872-19.88,44.872-49.984v-58.5H1154.46v19.88h20.448v39.76c0,17.892-7.1,28.684-23.288,28.684-15.9,0-23.288-10.792-23.288-28.684V-151.94c0-17.892,7.384-28.684,23.288-28.684,16.188,0,23.288,10.792,23.288,28.684v18.176h21.016V-150.8C1195.924-180.908,1181.724-200.788,1151.052-200.788Zm151.656,0c-29.82,0-44.02,19.028-44.02,49.7,0,55.948,66.456,60.208,66.456,104.512,0,17.892-7.384,28.4-23.288,28.4s-23.288-10.508-23.288-28.4v-12.5h-20.732v11.36c0,30.1,14.2,49.7,44.588,49.7s44.872-19.6,44.872-49.7c0-55.948-66.74-60.208-66.74-104.8,0-17.608,6.816-28.116,22.72-28.116s22.72,10.508,22.72,28.4v6.532h21.016v-5.4C1347.012-181.192,1332.812-200.788,1302.708-200.788ZM1364.9-48c0,30.1,15.052,49.984,45.44,49.984,30.672,0,45.724-19.88,45.724-49.984V-150.8c0-30.388-15.052-49.984-45.724-49.984-30.388,0-45.44,19.6-45.44,49.984Zm21.868-103.944c0-17.892,7.668-28.684,23.572-28.684,16.188,0,23.572,10.792,23.572,28.684V-46.86c0,18.176-7.384,28.684-23.572,28.684-15.9,0-23.572-10.508-23.572-28.684ZM1475.38-48c0,30.1,15.052,49.984,45.44,49.984,30.672,0,45.724-19.88,45.724-49.984V-150.8c0-30.388-15.052-49.984-45.724-49.984-30.388,0-45.44,19.6-45.44,49.984Zm21.868-103.944c0-17.892,7.668-28.684,23.572-28.684,16.188,0,23.572,10.792,23.572,28.684V-46.86c0,18.176-7.384,28.684-23.572,28.684-15.9,0-23.572-10.508-23.572-28.684Zm109.908-8.8L1657.992,0h23V-198.8h-19.6V-55.1l-46.008-143.7h-28.116V0h19.88Z" transform="translate(-6.532 200.788)" fill="#0b1013" opacity="0.2" style="mix-blend-mode: multiply;isolation: isolate"/>
</svg>
